<svg width="158" height="60" viewBox="0 0 158 60" fill="none" xmlns="http://www.w3.org/2000/svg">
<g filter="url(#filter0_d_1_267)">
<path d="M4 0H154V36C154 44.8366 146.837 52 138 52H20C11.1634 52 4 44.8366 4 36V0Z" fill="url(#paint0_linear_1_267)" shape-rendering="crispEdges"/>
<path d="M23.8857 31H22.3916V18.1504H29.5459V19.4688H23.8857V24.1797H29.2031V25.4893H23.8857V31ZM35.1797 21.1914C36 21.1914 36.7031 21.3731 37.2891 21.7363C37.875 22.0996 38.3232 22.6094 38.6338 23.2656C38.9443 23.916 39.0996 24.6777 39.0996 25.5508V26.4561H32.4463C32.4639 27.5869 32.7451 28.4482 33.29 29.04C33.835 29.6318 34.6025 29.9277 35.5928 29.9277C36.2022 29.9277 36.7412 29.8721 37.21 29.7607C37.6787 29.6494 38.165 29.4854 38.6689 29.2686V30.5518C38.1826 30.7686 37.6992 30.9268 37.2188 31.0264C36.7441 31.126 36.1816 31.1758 35.5313 31.1758C34.6055 31.1758 33.7969 30.9883 33.1055 30.6133C32.4199 30.2324 31.8867 29.6758 31.5059 28.9434C31.125 28.2109 30.9346 27.3145 30.9346 26.2539C30.9346 25.2168 31.1074 24.3203 31.4531 23.5645C31.8047 22.8027 32.2969 22.2168 32.9297 21.8066C33.5684 21.3965 34.3184 21.1914 35.1797 21.1914ZM35.1621 22.3867C34.3828 22.3867 33.7617 22.6416 33.2988 23.1514C32.8359 23.6611 32.5605 24.3731 32.4727 25.2871H37.5703C37.5645 24.7129 37.4736 24.209 37.2979 23.7754C37.1279 23.3359 36.8672 22.9961 36.5156 22.7559C36.1641 22.5098 35.7129 22.3867 35.1621 22.3867ZM52.0371 21.1914C53.0977 21.1914 53.8975 21.4697 54.4365 22.0264C54.9756 22.5772 55.2451 23.4648 55.2451 24.6895V31H53.8037V24.7598C53.8037 23.9805 53.6338 23.3975 53.294 23.0107C52.96 22.6182 52.4619 22.4219 51.7998 22.4219C50.8682 22.4219 50.1914 22.6914 49.7695 23.2305C49.3477 23.7695 49.1367 24.5635 49.1367 25.6123V31H47.6865V24.7598C47.6865 24.2383 47.6104 23.8047 47.458 23.459C47.3115 23.1133 47.0889 22.8555 46.79 22.6856C46.4971 22.5098 46.125 22.4219 45.6738 22.4219C45.0352 22.4219 44.5225 22.5537 44.1357 22.8174C43.749 23.0811 43.4678 23.4736 43.292 23.9951C43.1221 24.5107 43.0371 25.1465 43.0371 25.9023V31H41.5781V21.3672H42.7559L42.9756 22.7295H43.0547C43.2481 22.3955 43.4912 22.1143 43.7842 21.8857C44.0772 21.6572 44.4053 21.4844 44.7686 21.3672C45.1318 21.25 45.5186 21.1914 45.9287 21.1914C46.6611 21.1914 47.2734 21.3291 47.7656 21.6045C48.2637 21.874 48.624 22.2871 48.8467 22.8438H48.9258C49.2422 22.2871 49.6758 21.874 50.2266 21.6045C50.7774 21.3291 51.3809 21.1914 52.0371 21.1914ZM61.8457 21.209C62.9942 21.209 63.8467 21.4668 64.4033 21.9824C64.96 22.4981 65.2383 23.3213 65.2383 24.4522V31H64.1748L63.8936 29.5762H63.8233C63.5537 29.9277 63.2725 30.2236 62.9795 30.4639C62.6865 30.6982 62.3467 30.877 61.96 31C61.5791 31.1172 61.1104 31.1758 60.5537 31.1758C59.9678 31.1758 59.4463 31.0732 58.9893 30.8682C58.5381 30.6631 58.1807 30.3525 57.917 29.9365C57.6592 29.5205 57.5303 28.9932 57.5303 28.3545C57.5303 27.3936 57.9111 26.6553 58.6729 26.1397C59.4346 25.624 60.5947 25.3428 62.1533 25.2959L63.8145 25.2256V24.6367C63.8145 23.8047 63.6358 23.2217 63.2783 22.8877C62.9209 22.5537 62.417 22.3867 61.7666 22.3867C61.2627 22.3867 60.7822 22.46 60.3252 22.6064C59.8682 22.7529 59.4346 22.9258 59.0244 23.125L58.5762 22.0176C59.0098 21.7949 59.5078 21.6045 60.0703 21.4463C60.6328 21.2881 61.2246 21.209 61.8457 21.209ZM63.7969 26.2539L62.3291 26.3154C61.1279 26.3623 60.2813 26.5586 59.7891 26.9043C59.2969 27.25 59.0508 27.7393 59.0508 28.3721C59.0508 28.9229 59.2178 29.3301 59.5518 29.5938C59.8858 29.8574 60.3281 29.9893 60.8789 29.9893C61.7344 29.9893 62.4346 29.752 62.9795 29.2773C63.5244 28.8027 63.7969 28.0908 63.7969 27.1416V26.2539ZM69.7119 31H68.2442V17.3242H69.7119V31ZM76.5059 21.1914C77.3262 21.1914 78.0293 21.3731 78.6152 21.7363C79.2012 22.0996 79.6494 22.6094 79.96 23.2656C80.2705 23.916 80.4258 24.6777 80.4258 25.5508V26.4561H73.7725C73.7901 27.5869 74.0713 28.4482 74.6162 29.04C75.1611 29.6318 75.9287 29.9277 76.919 29.9277C77.5283 29.9277 78.0674 29.8721 78.5361 29.7607C79.0049 29.6494 79.4912 29.4854 79.9951 29.2686V30.5518C79.5088 30.7686 79.0254 30.9268 78.5449 31.0264C78.0703 31.126 77.5078 31.1758 76.8574 31.1758C75.9317 31.1758 75.1231 30.9883 74.4317 30.6133C73.7461 30.2324 73.2129 29.6758 72.832 28.9434C72.4512 28.2109 72.2608 27.3145 72.2608 26.2539C72.2608 25.2168 72.4336 24.3203 72.7793 23.5645C73.1309 22.8027 73.6231 22.2168 74.2559 21.8066C74.8945 21.3965 75.6445 21.1914 76.5059 21.1914ZM76.4883 22.3867C75.709 22.3867 75.0879 22.6416 74.625 23.1514C74.1621 23.6611 73.8867 24.3731 73.7988 25.2871H78.8965C78.8906 24.7129 78.7998 24.209 78.624 23.7754C78.4541 23.3359 78.1934 22.9961 77.8418 22.7559C77.4902 22.5098 77.0391 22.3867 76.4883 22.3867Z" fill="white"/>
<path d="M130 26L122.5 33.5L121.45 32.45L127.9 26L121.45 19.55L122.5 18.5L130 26Z" fill="#FAFAFA"/>
</g>
<defs>
<filter id="filter0_d_1_267" x="0" y="0" width="158" height="60" filterUnits="userSpaceOnUse" color-interpolation-filters="sRGB">
<feFlood flood-opacity="0" result="BackgroundImageFix"/>
<feColorMatrix in="SourceAlpha" type="matrix" values="0 0 0 0 0 0 0 0 0 0 0 0 0 0 0 0 0 0 127 0" result="hardAlpha"/>
<feOffset dy="4"/>
<feGaussianBlur stdDeviation="2"/>
<feComposite in2="hardAlpha" operator="out"/>
<feColorMatrix type="matrix" values="0 0 0 0 0 0 0 0 0 0 0 0 0 0 0 0 0 0 0.25 0"/>
<feBlend mode="normal" in2="BackgroundImageFix" result="effect1_dropShadow_1_267"/>
<feBlend mode="normal" in="SourceGraphic" in2="effect1_dropShadow_1_267" result="shape"/>
</filter>
<linearGradient id="paint0_linear_1_267" x1="4.00003" y1="23.2099" x2="35.8258" y2="87.5354" gradientUnits="userSpaceOnUse">
<stop stop-color="#642B73"/>
<stop offset="1" stop-color="#C6426E"/>
</linearGradient>
</defs>
</svg>
