<svg width="236" height="195" viewBox="0 0 236 195" fill="none" xmlns="http://www.w3.org/2000/svg">
<path d="M114 163C122.837 163 130 170.163 130 179C130 187.837 122.837 195 114 195C105.164 195 98 187.837 98 179C98 170.163 105.164 163 114 163Z" fill="#BBC8EC"/>
<path d="M227.752 161.354L4.42652 143.988C2.77451 143.859 1.33142 145.094 1.20296 146.746C1.07449 148.398 2.30933 149.841 3.96134 149.97L227.287 167.336C228.938 167.465 230.382 166.23 230.511 164.578C230.639 162.926 229.403 161.483 227.752 161.354Z" fill="#9BABD9"/>
<path d="M166.388 61C175.555 61.001 184.009 65.901 188.5 73.819C192.992 65.901 201.446 61.001 210.613 61C224.633 61 236 73.884 236 87.774C236 122.66 188.5 147 188.5 147C188.5 147 141 122.66 141 87.774C141 73.884 152.367 61 166.388 61Z" fill="#DEE4F8"/>
<path d="M139.079 23.8109C136.24 23.8109 133.948 21.5191 133.948 18.6805C133.948 18.361 133.698 18.1104 133.379 18.1104C133.059 18.1104 132.808 18.361 132.808 18.6805C132.808 21.5191 130.516 23.8109 127.678 23.8109C127.358 23.8109 127.107 24.0615 127.107 24.381C127.107 24.6997 127.358 24.9511 127.678 24.9511C130.516 24.9511 132.808 27.2421 132.808 30.0808C132.808 30.4003 133.059 30.6516 133.379 30.6516C133.698 30.6516 133.948 30.4003 133.948 30.0808C133.948 27.2421 136.24 24.9511 139.079 24.9511C139.398 24.9511 139.649 24.6997 139.649 24.381C139.649 24.0615 139.398 23.8109 139.079 23.8109Z" fill="#9BABD9"/>
<path d="M96.8105 0.303223H96.1175C95.7022 0.303223 95.3562 0.602465 95.3562 1.00211C95.0102 5.69446 89.887 10.4862 85.0065 10.919C84.6264 10.9522 84.3145 11.2845 84.3145 11.651V12.349C84.3145 12.7486 84.6264 13.0478 85.0416 13.081C89.887 13.4143 94.8367 18.2393 95.3562 22.9316C95.3913 23.3644 95.7714 23.6968 96.2559 23.6968H96.7413C97.2257 23.6968 97.6059 23.3644 97.641 22.8985C98.0562 17.6408 102.452 13.3149 107.921 13.0478C108.371 13.0157 108.683 12.6823 108.683 12.2495V11.651C108.683 11.2183 108.337 10.8849 107.921 10.8518C102.417 10.5857 97.987 6.22667 97.641 0.901708C97.5718 0.602465 97.2257 0.303223 96.8105 0.303223Z" fill="#DEE4F8"/>
<path d="M37.9648 37C33.1988 37 29.3348 40.868 29.3348 45.639C29.3348 45.888 29.3478 46.133 29.3688 46.376C28.5148 46.189 27.6298 46.089 26.7198 46.089C19.8818 46.089 14.3398 51.638 14.3398 58.482C14.3398 60.015 14.6198 61.482 15.1278 62.838C8.80976 63.399 3.85576 68.709 3.85576 75.179C3.85576 79.286 5.85276 82.924 8.92576 85.18C5.85076 86.197 3.47776 88.912 3.06176 92.344C2.50876 96.905 5.61476 101.066 10.0718 101.881C8.68676 103.94 7.87876 106.42 7.87876 109.089C7.87876 116.227 13.6588 122.014 20.7898 122.014C23.1088 122.014 25.2828 121.398 27.1648 120.326C28.0618 124.824 32.0278 128.214 36.7838 128.214C42.2018 128.214 46.5948 123.817 46.5948 118.393V45.639C46.5948 40.868 42.7308 37 37.9648 37Z" fill="#DEE4F8"/>
<path d="M36.1708 97.306C35.8898 96.65 35.1288 96.344 34.4718 96.625C32.4918 97.47 30.8578 98.975 29.8508 100.871C27.9068 100.412 25.8738 100.584 24.0018 101.384C23.3438 101.665 23.0388 102.426 23.3188 103.083C23.6008 103.741 24.3618 104.045 25.0188 103.764C26.6968 103.047 28.5528 103.027 30.2448 103.705C31.9378 104.383 33.2628 105.679 33.9788 107.356C34.1568 107.774 34.2948 108.207 34.3858 108.648C34.5288 109.334 35.1908 109.78 35.8768 109.659C35.8898 109.656 35.9038 109.654 35.9178 109.651C36.6178 109.504 37.0668 108.82 36.9208 108.12C36.7948 107.512 36.6058 106.913 36.3598 106.338C35.5318 104.397 34.1068 102.827 32.2888 101.819C33.0258 100.571 34.1478 99.579 35.4888 99.005C36.1458 98.725 36.4518 97.964 36.1708 97.306Z" fill="#C0CCEE"/>
<path d="M29.5553 72.402C29.5433 72.427 29.5313 72.452 29.5183 72.475C28.8573 73.789 28.4703 75.256 28.4193 76.802C28.3513 78.875 28.8973 80.895 29.9973 82.643C30.3783 83.248 30.1983 84.046 29.5933 84.427C29.3783 84.563 29.1403 84.626 28.9043 84.626C28.4743 84.626 28.0543 84.412 27.8073 84.022C26.4313 81.834 25.7473 79.31 25.8323 76.718C25.8863 75.068 26.2493 73.488 26.8673 72.04C24.8793 69.565 23.8453 66.402 24.0163 63.225C24.0543 62.511 24.6693 61.964 25.3783 62.002C26.0923 62.04 26.6413 62.65 26.6023 63.364C26.4843 65.553 27.0813 67.733 28.2643 69.562C29.9313 67.252 32.3613 65.503 35.2603 64.687C35.9483 64.493 36.6633 64.893 36.8573 65.581C37.0513 66.269 36.6503 66.984 35.9623 67.178C33.1163 67.979 30.8373 69.904 29.5553 72.402Z" fill="#C0CCEE"/>
<path d="M56.628 37C61.394 37 65.258 40.868 65.258 45.639C65.258 45.888 65.245 46.133 65.224 46.376C66.078 46.189 66.963 46.089 67.873 46.089C74.71 46.089 80.253 51.638 80.253 58.482C80.253 60.015 79.973 61.482 79.465 62.838C85.782 63.399 90.737 68.709 90.737 75.179C90.737 79.286 88.74 82.924 85.667 85.18C88.742 86.197 91.115 88.912 91.531 92.344C92.084 96.905 88.978 101.066 84.521 101.881C85.906 103.94 86.714 106.42 86.714 109.089C86.714 116.227 80.934 122.014 73.803 122.014C71.484 122.014 69.31 121.398 67.428 120.326C66.53 124.824 62.565 128.214 57.809 128.214C52.391 128.214 47.998 123.817 47.998 118.393V45.639C47.998 40.868 51.862 37 56.628 37Z" fill="#DEE4F8"/>
<path d="M58.4221 97.306C58.7031 96.65 59.4631 96.344 60.1201 96.625C62.1001 97.47 63.7331 98.975 64.7401 100.871C66.6841 100.412 68.7181 100.584 70.5901 101.384C71.2481 101.665 71.5531 102.426 71.2731 103.083C70.9921 103.741 70.2291 104.045 69.5721 103.764C67.8941 103.047 66.0381 103.027 64.3461 103.705C62.6531 104.383 61.3291 105.679 60.6131 107.356C60.4351 107.774 60.2971 108.207 60.2061 108.648C60.0631 109.334 59.4011 109.78 58.7151 109.659C58.7021 109.656 58.6881 109.654 58.6741 109.651C57.9741 109.504 57.5261 108.82 57.6721 108.12C57.7981 107.512 57.9861 106.913 58.2321 106.338C59.0601 104.397 60.4851 102.827 62.3031 101.819C61.5661 100.571 60.4441 99.579 59.1031 99.005C58.4451 98.725 58.1411 97.964 58.4221 97.306Z" fill="#C0CCEE"/>
<path d="M65.0384 72.402C65.0504 72.427 65.0624 72.452 65.0754 72.475C65.7364 73.789 66.1234 75.256 66.1744 76.802C66.2424 78.875 65.6964 80.895 64.5964 82.643C64.2154 83.248 64.3954 84.046 65.0004 84.427C65.2154 84.563 65.4534 84.626 65.6894 84.626C66.1194 84.626 66.5394 84.412 66.7864 84.022C68.1624 81.834 68.8464 79.31 68.7614 76.718C68.7074 75.068 68.3444 73.488 67.7264 72.04C69.7144 69.565 70.7484 66.402 70.5774 63.225C70.5394 62.511 69.9244 61.964 69.2154 62.002C68.5014 62.04 67.9524 62.65 67.9914 63.364C68.1094 65.553 67.5124 67.733 66.3294 69.562C64.6624 67.252 62.2324 65.503 59.3334 64.687C58.6454 64.493 57.9304 64.893 57.7364 65.581C57.5424 66.269 57.9434 66.984 58.6314 67.178C61.4774 67.979 63.7564 69.904 65.0384 72.402Z" fill="#C0CCEE"/>
</svg>
