<svg width="158" height="60" viewBox="0 0 158 60" fill="none" xmlns="http://www.w3.org/2000/svg">
<g filter="url(#filter0_d_1_222)">
<path d="M4 0H154V36C154 44.8366 146.837 52 138 52H20C11.1634 52 4 44.8366 4 36V0Z" fill="#454895" shape-rendering="crispEdges"/>
<path d="M27.9834 31L23.668 19.627H23.5977C23.6211 19.8672 23.6416 20.1602 23.6592 20.5059C23.6768 20.8516 23.6914 21.2295 23.7031 21.6397C23.7148 22.0439 23.7207 22.457 23.7207 22.8789V31H22.332V18.1504H24.5469L28.6162 28.8379H28.6777L32.8086 18.1504H35.0059V31H33.5293V22.7734C33.5293 22.3926 33.5352 22.0117 33.5469 21.6309C33.5586 21.2441 33.5732 20.8809 33.5908 20.541C33.6084 20.1953 33.626 19.8965 33.6436 19.6445H33.5732L29.2051 31H27.9834ZM41.9053 21.209C43.0537 21.209 43.9063 21.4668 44.4629 21.9824C45.0195 22.4981 45.2979 23.3213 45.2979 24.4522V31H44.2344L43.9531 29.5762H43.8828C43.6133 29.9277 43.332 30.2236 43.0391 30.4639C42.7461 30.6982 42.4063 30.877 42.0195 31C41.6387 31.1172 41.1699 31.1758 40.6133 31.1758C40.0273 31.1758 39.5059 31.0732 39.0488 30.8682C38.5977 30.6631 38.2402 30.3525 37.9766 29.9365C37.7188 29.5205 37.5898 28.9932 37.5898 28.3545C37.5898 27.3936 37.9707 26.6553 38.7324 26.1397C39.4941 25.624 40.6543 25.3428 42.2129 25.2959L43.874 25.2256V24.6367C43.874 23.8047 43.6953 23.2217 43.3379 22.8877C42.9805 22.5537 42.4766 22.3867 41.8262 22.3867C41.3223 22.3867 40.8418 22.46 40.3848 22.6064C39.9277 22.7529 39.4941 22.9258 39.084 23.125L38.6357 22.0176C39.0693 21.7949 39.5674 21.6045 40.1299 21.4463C40.6924 21.2881 41.2842 21.209 41.9053 21.209ZM43.8565 26.2539L42.3887 26.3154C41.1875 26.3623 40.3408 26.5586 39.8486 26.9043C39.3564 27.25 39.1104 27.7393 39.1104 28.3721C39.1104 28.9229 39.2773 29.3301 39.6113 29.5938C39.9453 29.8574 40.3877 29.9893 40.9385 29.9893C41.794 29.9893 42.4941 29.752 43.0391 29.2773C43.584 28.8027 43.8565 28.0908 43.8565 27.1416V26.2539ZM49.7715 31H48.3037V17.3242H49.7715V31ZM56.5654 21.1914C57.3858 21.1914 58.0889 21.3731 58.6748 21.7363C59.2608 22.0996 59.709 22.6094 60.0195 23.2656C60.3301 23.916 60.4854 24.6777 60.4854 25.5508V26.4561H53.832C53.8496 27.5869 54.1309 28.4482 54.6758 29.04C55.2207 29.6318 55.9883 29.9277 56.9785 29.9277C57.5879 29.9277 58.127 29.8721 58.5957 29.7607C59.0645 29.6494 59.5508 29.4854 60.0547 29.2686V30.5518C59.5684 30.7686 59.085 30.9268 58.6045 31.0264C58.1299 31.126 57.5674 31.1758 56.917 31.1758C55.9912 31.1758 55.1826 30.9883 54.4912 30.6133C53.8057 30.2324 53.2725 29.6758 52.8916 28.9434C52.5107 28.2109 52.3203 27.3145 52.3203 26.2539C52.3203 25.2168 52.4932 24.3203 52.8389 23.5645C53.1904 22.8027 53.6826 22.2168 54.3154 21.8066C54.9541 21.3965 55.7041 21.1914 56.5654 21.1914ZM56.5479 22.3867C55.7686 22.3867 55.1475 22.6416 54.6846 23.1514C54.2217 23.6611 53.9463 24.3731 53.8584 25.2871H58.9561C58.9502 24.7129 58.8594 24.209 58.6836 23.7754C58.5137 23.3359 58.2529 22.9961 57.9014 22.7559C57.5498 22.5098 57.0986 22.3867 56.5479 22.3867Z" fill="white"/>
<path d="M130 26L122.5 33.5L121.45 32.45L127.9 26L121.45 19.55L122.5 18.5L130 26Z" fill="#FAFAFA"/>
</g>
<defs>
<filter id="filter0_d_1_222" x="0" y="0" width="158" height="60" filterUnits="userSpaceOnUse" color-interpolation-filters="sRGB">
<feFlood flood-opacity="0" result="BackgroundImageFix"/>
<feColorMatrix in="SourceAlpha" type="matrix" values="0 0 0 0 0 0 0 0 0 0 0 0 0 0 0 0 0 0 127 0" result="hardAlpha"/>
<feOffset dy="4"/>
<feGaussianBlur stdDeviation="2"/>
<feComposite in2="hardAlpha" operator="out"/>
<feColorMatrix type="matrix" values="0 0 0 0 0 0 0 0 0 0 0 0 0 0 0 0 0 0 0.25 0"/>
<feBlend mode="normal" in2="BackgroundImageFix" result="effect1_dropShadow_1_222"/>
<feBlend mode="normal" in="SourceGraphic" in2="effect1_dropShadow_1_222" result="shape"/>
</filter>
</defs>
</svg>
