<svg width="231" height="195" viewBox="0 0 231 195" fill="none" xmlns="http://www.w3.org/2000/svg">
<path d="M114 163C122.837 163 130 170.163 130 179C130 187.837 122.837 195 114 195C105.164 195 98 187.837 98 179C98 170.163 105.164 163 114 163Z" fill="#BBC8EC"/>
<path d="M226.827 141.004L4.05388 164.419C2.40596 164.592 1.21069 166.068 1.3839 167.716C1.5571 169.364 3.03313 170.559 4.68105 170.386L227.454 146.971C229.101 146.798 230.297 145.322 230.124 143.674C229.951 142.026 228.474 140.831 226.827 141.004Z" fill="#9BABD9"/>
<path d="M155.388 50C164.555 50.001 173.009 54.901 177.5 62.819C181.992 54.901 190.446 50.001 199.613 50C213.633 50 225 62.884 225 76.774C225 111.66 177.5 136 177.5 136C177.5 136 130 111.66 130 76.774C130 62.884 141.367 50 155.388 50Z" fill="#DEE4F8"/>
<path d="M139.079 23.8109C136.24 23.8109 133.948 21.5191 133.948 18.6805C133.948 18.361 133.698 18.1104 133.379 18.1104C133.059 18.1104 132.808 18.361 132.808 18.6805C132.808 21.5191 130.516 23.8109 127.678 23.8109C127.358 23.8109 127.107 24.0615 127.107 24.381C127.107 24.6997 127.358 24.9511 127.678 24.9511C130.516 24.9511 132.808 27.2421 132.808 30.0808C132.808 30.4003 133.059 30.6516 133.379 30.6516C133.698 30.6516 133.948 30.4003 133.948 30.0808C133.948 27.2421 136.24 24.9511 139.079 24.9511C139.398 24.9511 139.649 24.6997 139.649 24.381C139.649 24.0615 139.398 23.8109 139.079 23.8109Z" fill="#9BABD9"/>
<path d="M96.8105 0.303223H96.1175C95.7022 0.303223 95.3562 0.602465 95.3562 1.00211C95.0102 5.69446 89.887 10.4862 85.0065 10.919C84.6264 10.9522 84.3145 11.2845 84.3145 11.651V12.349C84.3145 12.7486 84.6264 13.0478 85.0416 13.081C89.887 13.4143 94.8367 18.2393 95.3562 22.9316C95.3913 23.3644 95.7714 23.6968 96.2559 23.6968H96.7413C97.2257 23.6968 97.6059 23.3644 97.641 22.8985C98.0562 17.6408 102.452 13.3149 107.921 13.0478C108.371 13.0157 108.683 12.6823 108.683 12.2495V11.651C108.683 11.2183 108.337 10.8849 107.921 10.8518C102.417 10.5857 97.987 6.22667 97.641 0.901708C97.5718 0.602465 97.2257 0.303223 96.8105 0.303223Z" fill="#DEE4F8"/>
<path d="M37.9648 59C33.1988 59 29.3348 62.868 29.3348 67.639C29.3348 67.888 29.3478 68.133 29.3688 68.376C28.5148 68.189 27.6298 68.089 26.7198 68.089C19.8818 68.089 14.3398 73.638 14.3398 80.482C14.3398 82.015 14.6198 83.482 15.1278 84.838C8.80976 85.399 3.85576 90.709 3.85576 97.179C3.85576 101.286 5.85276 104.924 8.92576 107.18C5.85076 108.197 3.47776 110.912 3.06176 114.344C2.50876 118.905 5.61476 123.066 10.0718 123.881C8.68676 125.94 7.87876 128.42 7.87876 131.089C7.87876 138.227 13.6588 144.014 20.7898 144.014C23.1088 144.014 25.2828 143.398 27.1648 142.326C28.0618 146.824 32.0278 150.214 36.7838 150.214C42.2018 150.214 46.5948 145.817 46.5948 140.393V67.639C46.5948 62.868 42.7308 59 37.9648 59Z" fill="#DEE4F8"/>
<path d="M36.1708 119.306C35.8898 118.65 35.1288 118.344 34.4718 118.625C32.4918 119.47 30.8578 120.975 29.8508 122.871C27.9068 122.412 25.8738 122.584 24.0018 123.384C23.3438 123.665 23.0388 124.426 23.3188 125.083C23.6008 125.741 24.3618 126.045 25.0188 125.764C26.6968 125.047 28.5528 125.027 30.2448 125.705C31.9378 126.383 33.2628 127.679 33.9788 129.356C34.1568 129.774 34.2948 130.207 34.3858 130.648C34.5288 131.334 35.1908 131.78 35.8768 131.659C35.8898 131.656 35.9038 131.654 35.9178 131.651C36.6178 131.504 37.0668 130.82 36.9208 130.12C36.7948 129.512 36.6058 128.913 36.3598 128.338C35.5318 126.397 34.1068 124.827 32.2888 123.819C33.0258 122.571 34.1478 121.579 35.4888 121.005C36.1458 120.725 36.4518 119.964 36.1708 119.306Z" fill="#C0CCEE"/>
<path d="M29.5553 94.402C29.5433 94.427 29.5313 94.452 29.5183 94.475C28.8573 95.789 28.4703 97.256 28.4193 98.802C28.3513 100.875 28.8973 102.895 29.9973 104.643C30.3783 105.248 30.1983 106.046 29.5933 106.427C29.3783 106.563 29.1403 106.626 28.9043 106.626C28.4743 106.626 28.0543 106.412 27.8073 106.022C26.4313 103.834 25.7473 101.31 25.8323 98.718C25.8863 97.068 26.2493 95.488 26.8673 94.04C24.8793 91.565 23.8453 88.402 24.0163 85.225C24.0543 84.511 24.6693 83.964 25.3783 84.002C26.0923 84.04 26.6413 84.65 26.6023 85.364C26.4843 87.553 27.0813 89.733 28.2643 91.562C29.9313 89.252 32.3613 87.503 35.2603 86.687C35.9483 86.493 36.6633 86.893 36.8573 87.581C37.0513 88.269 36.6503 88.984 35.9623 89.178C33.1163 89.979 30.8373 91.904 29.5553 94.402Z" fill="#C0CCEE"/>
<path d="M56.628 59C61.394 59 65.258 62.868 65.258 67.639C65.258 67.888 65.245 68.133 65.224 68.376C66.078 68.189 66.963 68.089 67.873 68.089C74.71 68.089 80.253 73.638 80.253 80.482C80.253 82.015 79.973 83.482 79.465 84.838C85.782 85.399 90.737 90.709 90.737 97.179C90.737 101.286 88.74 104.924 85.667 107.18C88.742 108.197 91.115 110.912 91.531 114.344C92.084 118.905 88.978 123.066 84.521 123.881C85.906 125.94 86.714 128.42 86.714 131.089C86.714 138.227 80.934 144.014 73.803 144.014C71.484 144.014 69.31 143.398 67.428 142.326C66.53 146.824 62.565 150.214 57.809 150.214C52.391 150.214 47.998 145.817 47.998 140.393V67.639C47.998 62.868 51.862 59 56.628 59Z" fill="#DEE4F8"/>
<path d="M58.4221 119.306C58.7031 118.65 59.4631 118.344 60.1201 118.625C62.1001 119.47 63.7331 120.975 64.7401 122.871C66.6841 122.412 68.7181 122.584 70.5901 123.384C71.2481 123.665 71.5531 124.426 71.2731 125.083C70.9921 125.741 70.2291 126.045 69.5721 125.764C67.8941 125.047 66.0381 125.027 64.3461 125.705C62.6531 126.383 61.3291 127.679 60.6131 129.356C60.4351 129.774 60.2971 130.207 60.2061 130.648C60.0631 131.334 59.4011 131.78 58.7151 131.659C58.7021 131.656 58.6881 131.654 58.6741 131.651C57.9741 131.504 57.5261 130.82 57.6721 130.12C57.7981 129.512 57.9861 128.913 58.2321 128.338C59.0601 126.397 60.4851 124.827 62.3031 123.819C61.5661 122.571 60.4441 121.579 59.1031 121.005C58.4451 120.725 58.1411 119.964 58.4221 119.306Z" fill="#C0CCEE"/>
<path d="M65.0384 94.402C65.0504 94.427 65.0624 94.452 65.0754 94.475C65.7364 95.789 66.1234 97.256 66.1744 98.802C66.2424 100.875 65.6964 102.895 64.5964 104.643C64.2154 105.248 64.3954 106.046 65.0004 106.427C65.2154 106.563 65.4534 106.626 65.6894 106.626C66.1194 106.626 66.5394 106.412 66.7864 106.022C68.1624 103.834 68.8464 101.31 68.7614 98.718C68.7074 97.068 68.3444 95.488 67.7264 94.04C69.7144 91.565 70.7484 88.402 70.5774 85.225C70.5394 84.511 69.9244 83.964 69.2154 84.002C68.5014 84.04 67.9524 84.65 67.9914 85.364C68.1094 87.553 67.5124 89.733 66.3294 91.562C64.6624 89.252 62.2324 87.503 59.3334 86.687C58.6454 86.493 57.9304 86.893 57.7364 87.581C57.5424 88.269 57.9434 88.984 58.6314 89.178C61.4774 89.979 63.7564 91.904 65.0384 94.402Z" fill="#C0CCEE"/>
</svg>
